<svg id="Layer_1" data-name="Layer 1" xmlns="http://www.w3.org/2000/svg" viewBox="0 0 512 512"><defs><style>.cls-1{fill:#0171cb;}.cls-2{fill:#e9148b;}.cls-3{opacity:0.5;}.cls-4{fill:#b51e6d;}.cls-5{fill:#fff;}</style></defs><title>Artboard 1</title><rect class="cls-1" x="456.81" y="121.39" width="7.95" height="117.01"/><circle class="cls-2" cx="460.71" cy="109.4" r="25.87"/><rect class="cls-1" x="48.28" y="121.82" width="7.95" height="117.01"/><circle class="cls-2" cx="52.18" cy="109.83" r="25.87"/><path class="cls-1" d="M425.42,209.82H483a14.55,14.55,0,0,1,14.55,14.55V297A14.55,14.55,0,0,1,483,311.6h-57.6a24.88,24.88,0,0,1-24.88-24.88v-52A24.88,24.88,0,0,1,425.42,209.82Z" transform="translate(898.36 520.97) rotate(179.94)"/><path class="cls-1" d="M39.93,210.23h57.6a14.55,14.55,0,0,1,14.55,14.55v72.68A14.55,14.55,0,0,1,97.53,312H39.93A24.88,24.88,0,0,1,15,287.12v-52a24.88,24.88,0,0,1,24.88-24.88Z"/><path class="cls-2" d="M190.11,119.06h133A114.88,114.88,0,0,1,438,233.94v150.9a43.92,43.92,0,0,1-43.92,43.92H119.16a43.92,43.92,0,0,1-43.92-43.92V233.94A114.88,114.88,0,0,1,190.11,119.06Z" transform="translate(513.52 547.57) rotate(179.94)"/><g class="cls-3"><path class="cls-4" d="M309.43,402.56l-105.36.1A107.85,107.85,0,0,1,96.24,295l-.11-111.89a37.82,37.82,0,0,1,37.74-37.82l246.84-.24a36.23,36.23,0,0,1,36.23,36.16l.11,113.48A107.85,107.85,0,0,1,309.43,402.56ZM133.89,166.87a16.25,16.25,0,0,0-16.21,16.25l.1,111.9a86.29,86.29,0,0,0,86.27,86.1L309.41,381a86.28,86.28,0,0,0,86.1-86.26l-.11-113.48a14.67,14.67,0,0,0-14.67-14.64Z"/></g><path class="cls-5" d="M198.36,157.85H314.28a89.3,89.3,0,0,1,89.3,89.3V365.09A24.88,24.88,0,0,1,378.7,390H132.48a23.42,23.42,0,0,1-23.42-23.42V247.15a89.3,89.3,0,0,1,89.3-89.3Z" transform="translate(512.91 547.57) rotate(179.94)"/><circle class="cls-1" cx="190.08" cy="237.44" r="29.37"/><circle class="cls-1" cx="322.5" cy="237.31" r="29.37"/><path class="cls-1" d="M295,297.37a5.94,5.94,0,0,1,6,5.94h0A39.73,39.73,0,0,1,261.24,343h-9.38a40.25,40.25,0,0,1-40.25-40.25h0a5.43,5.43,0,0,1,5.43-5.42h78"/></svg>