<?xml version="1.0" encoding="UTF-8"?>
<svg width="64px" height="64px" viewBox="0 0 64 64" version="1.1" xmlns="http://www.w3.org/2000/svg" xmlns:xlink="http://www.w3.org/1999/xlink">
    <!-- Generator: Sketch 53.1 (72631) - https://sketchapp.com -->
    <title>user icon</title>
    <desc>Created with Sketch.</desc>
    <g id="Page-1" stroke="none" stroke-width="1" fill="none" fill-rule="evenodd">
        <g id="user-icon">
            <circle id="Oval" fill="#2C72C7" cx="32" cy="32" r="32"></circle>
            <g id="user" transform="translate(20.000000, 16.000000)" fill-rule="nonzero">
                <path d="M12,15.3289254 C15.4848358,15.3289254 18.3101194,11.8974627 18.3101194,7.66450746 C18.3101194,3.43146269 17.3825373,0 12,0 C6.61746269,0 5.68970149,3.43146269 5.68970149,7.66450746 C5.68970149,11.8974627 8.51498507,15.3289254 12,15.3289254 Z" id="Path" fill="#FFFFFF"></path>
                <path d="M0.0866992499,27.0316119 C0.0854992499,26.7735224 0.0842992499,26.9588955 0.0866992499,27.0316119 L0.0866992499,27.0316119 Z" id="Path" fill="#000000"></path>
                <path d="M23.9231782,27.233194 C23.9269782,27.1625373 23.9244782,26.7429851 23.9231782,27.233194 L23.9231782,27.233194 Z" id="Path" fill="#000000"></path>
                <path d="M23.9046269,26.7221194 C23.7877612,19.348209 22.8247164,17.2470448 15.455194,15.9170149 C15.455194,15.9170149 14.4178209,17.2388955 11.9999104,17.2388955 C9.582,17.2388955 8.54444776,15.9170149 8.54444776,15.9170149 C1.25534328,17.2325373 0.233731343,19.3025373 0.0994029851,26.4825672 C0.0883880597,27.0688657 0.0832835821,27.0996716 0.0813134328,27.0316119 C0.081761194,27.1591343 0.0822985075,27.3950149 0.0822985075,27.8063284 C0.0822985075,27.8063284 1.83680597,31.3432836 11.9999104,31.3432836 C22.1628358,31.3432836 23.9175224,27.8063284 23.9175224,27.8063284 C23.9175224,27.5420597 23.9177015,27.3582985 23.9179701,27.2332836 C23.916,27.2753731 23.9120597,27.193791 23.9046269,26.7221194 Z" id="Path" fill="#FFFFFF"></path>
            </g>
        </g>
    </g>
</svg>